<?xml version="1.0" encoding="utf-8" standalone="no"?>
<!DOCTYPE svg PUBLIC "-//W3C//DTD SVG 1.1//EN"
  "http://www.w3.org/Graphics/SVG/1.1/DTD/svg11.dtd">
<!-- Created with matplotlib (https://matplotlib.org/) -->
<svg height="504pt" version="1.1" viewBox="0 0 648 504" width="648pt" xmlns="http://www.w3.org/2000/svg" xmlns:xlink="http://www.w3.org/1999/xlink">
 <defs>
  <style type="text/css">
*{stroke-linecap:butt;stroke-linejoin:round;}
  </style>
 </defs>
 <g id="figure_1">
  <g id="patch_1">
   <path d="M 0 504 
L 648 504 
L 648 0 
L 0 0 
z
" style="fill:#ffffff;"/>
  </g>
  <g id="axes_1">
   <g id="patch_2">
    <path d="M 81 448.56 
L 583.2 448.56 
L 583.2 60.48 
L 81 60.48 
z
" style="fill:#ffffff;"/>
   </g>
   <g id="matplotlib.axis_1">
    <g id="xtick_1">
     <g id="line2d_1">
      <defs>
       <path d="M 0 0 
L 0 3.5 
" id="m3e76ffdfaf" style="stroke:#000000;stroke-width:0.8;"/>
      </defs>
      <g>
       <use style="stroke:#000000;stroke-width:0.8;" x="103.827273" xlink:href="#m3e76ffdfaf" y="448.56"/>
      </g>
     </g>
     <g id="text_1">
      <!-- 0 -->
      <defs>
       <path d="M 23.703125 63.5 
Q 32 63.5 38.046875 54.140625 
Q 44.09375 44.796875 44.09375 30.90625 
Q 44.09375 17.09375 38.046875 7.75 
Q 32 -1.59375 23.703125 -1.59375 
Q 15.703125 -1.59375 9.5 7.65625 
Q 3.296875 16.90625 3.296875 30.90625 
Q 3.296875 44.796875 9.34375 54.140625 
Q 15.40625 63.5 23.703125 63.5 
z
M 23.703125 0.703125 
Q 31.09375 0.703125 33.9375 8.046875 
Q 36.796875 15.40625 36.796875 30.90625 
Q 36.796875 46.40625 33.9375 53.796875 
Q 31.09375 61.203125 23.703125 61.203125 
Q 16.296875 61.203125 13.4375 53.796875 
Q 10.59375 46.40625 10.59375 30.90625 
Q 10.59375 0.703125 23.703125 0.703125 
z
" id="STKaiti-48"/>
      </defs>
      <g transform="translate(99.136648 468.76)scale(0.2 -0.2)">
       <use xlink:href="#STKaiti-48"/>
      </g>
     </g>
    </g>
    <g id="xtick_2">
     <g id="line2d_2">
      <g>
       <use style="stroke:#000000;stroke-width:0.8;" x="225.767832" xlink:href="#m3e76ffdfaf" y="448.56"/>
      </g>
     </g>
     <g id="text_2">
      <!-- 5000 -->
      <defs>
       <path d="M 38 56.59375 
L 24 56.59375 
Q 16.203125 56.59375 15.40625 56.296875 
L 14.09375 38 
Q 18.5 40.09375 23.09375 40.09375 
Q 31.296875 40.09375 37 34.5 
Q 42.703125 28.90625 42.703125 19.90625 
Q 42.703125 9.90625 35.640625 4.15625 
Q 28.59375 -1.59375 19.59375 -1.59375 
Q 14.59375 -1.59375 10.390625 0.15625 
Q 6.203125 1.90625 6.203125 4 
Q 6.203125 5 7.09375 6.046875 
Q 8 7.09375 9.59375 7.09375 
Q 10.703125 7.09375 11.40625 6.59375 
Q 18.40625 1.296875 22.703125 1.296875 
Q 28.296875 1.296875 32.59375 6.140625 
Q 36.90625 11 36.90625 17.59375 
Q 36.90625 24.59375 32.546875 29.25 
Q 28.203125 33.90625 21.796875 33.90625 
Q 19 33.90625 16.546875 33 
Q 14.09375 32.09375 13 30.5 
L 11.296875 30.5 
L 13.203125 62.5 
L 24.09375 62.5 
Q 31.59375 62.5 34 62.703125 
Q 36.40625 62.90625 37.40625 64.203125 
L 38.90625 64.203125 
z
" id="STKaiti-53"/>
      </defs>
      <g transform="translate(207.005332 468.76)scale(0.2 -0.2)">
       <use xlink:href="#STKaiti-53"/>
       <use x="46.899994" xlink:href="#STKaiti-48"/>
       <use x="93.799988" xlink:href="#STKaiti-48"/>
       <use x="140.699982" xlink:href="#STKaiti-48"/>
      </g>
     </g>
    </g>
    <g id="xtick_3">
     <g id="line2d_3">
      <g>
       <use style="stroke:#000000;stroke-width:0.8;" x="347.708392" xlink:href="#m3e76ffdfaf" y="448.56"/>
      </g>
     </g>
     <g id="text_3">
      <!-- 10000 -->
      <defs>
       <path d="M 35.5 -0.296875 
Q 30.296875 0 23.796875 0 
Q 17.296875 0 12.09375 -0.296875 
L 12.09375 1.296875 
L 17.296875 2.203125 
Q 20.796875 2.90625 20.796875 6.09375 
L 20.796875 55.5 
L 8.90625 47.796875 
L 7.5 49.703125 
Q 14.40625 54.203125 24.09375 63.5 
L 27.40625 63.5 
L 27.40625 6.09375 
Q 27.40625 2.703125 30.90625 2.09375 
L 35.5 1.296875 
z
" id="STKaiti-49"/>
      </defs>
      <g transform="translate(324.255267 468.76)scale(0.2 -0.2)">
       <use xlink:href="#STKaiti-49"/>
       <use x="46.899994" xlink:href="#STKaiti-48"/>
       <use x="93.799988" xlink:href="#STKaiti-48"/>
       <use x="140.699982" xlink:href="#STKaiti-48"/>
       <use x="187.599976" xlink:href="#STKaiti-48"/>
      </g>
     </g>
    </g>
    <g id="xtick_4">
     <g id="line2d_4">
      <g>
       <use style="stroke:#000000;stroke-width:0.8;" x="469.648951" xlink:href="#m3e76ffdfaf" y="448.56"/>
      </g>
     </g>
     <g id="text_4">
      <!-- 15000 -->
      <g transform="translate(446.195826 468.76)scale(0.2 -0.2)">
       <use xlink:href="#STKaiti-49"/>
       <use x="46.899994" xlink:href="#STKaiti-53"/>
       <use x="93.799988" xlink:href="#STKaiti-48"/>
       <use x="140.699982" xlink:href="#STKaiti-48"/>
       <use x="187.599976" xlink:href="#STKaiti-48"/>
      </g>
     </g>
    </g>
    <g id="text_5">
     <!-- Step -->
     <defs>
      <path d="M 37.59375 47.703125 
Q 34.703125 60.796875 23.203125 60.796875 
Q 17.796875 60.796875 14.140625 57.6875 
Q 10.5 54.59375 10.5 50.40625 
Q 10.5 47.09375 13.453125 44.296875 
Q 16.40625 41.5 25.703125 36.703125 
Q 35.203125 31.796875 39.453125 28.09375 
Q 43.703125 24.40625 43.703125 17.09375 
Q 43.703125 8.703125 37.84375 3.546875 
Q 32 -1.59375 21.5 -1.59375 
Q 11.796875 -1.59375 3.796875 3.09375 
L 4.90625 18 
L 6.296875 18 
Q 7.203125 10.59375 12.296875 5.84375 
Q 17.40625 1.09375 23.59375 1.09375 
Q 29.5 1.09375 33.546875 4.59375 
Q 37.59375 8.09375 37.59375 13 
Q 37.59375 17.40625 34.34375 20.40625 
Q 31.09375 23.40625 23.59375 27.296875 
Q 13.203125 32.703125 9.09375 37.09375 
Q 5 41.5 5 47.203125 
Q 5 54.296875 10.5 58.890625 
Q 16 63.5 24.796875 63.5 
Q 33.59375 63.5 39.296875 59.09375 
L 38.90625 47.703125 
z
" id="STKaiti-83"/>
      <path d="M 15.296875 48.203125 
L 16.5 48.203125 
L 16.59375 37.5 
L 30.203125 37.796875 
L 30.203125 34.203125 
L 16.59375 33.796875 
L 16.59375 10 
Q 16.59375 5.5 17.84375 3.5 
Q 19.09375 1.5 21.90625 1.5 
Q 25.296875 1.5 30.09375 4.296875 
L 31 2.90625 
Q 28.90625 0.5 26.15625 -0.546875 
Q 23.40625 -1.59375 18.703125 -1.59375 
Q 13.5 -1.59375 11.890625 0.953125 
Q 10.296875 3.5 10.296875 11 
L 10.296875 33.59375 
L 4.90625 33.5 
Q 3.5 33.5 3.5 34.296875 
Q 3.5 35 4.796875 35.59375 
Q 9.09375 37.40625 11.046875 39.75 
Q 13 42.09375 15.296875 48.203125 
z
" id="STKaiti-116"/>
      <path d="M 38.703125 25.09375 
L 10.796875 25.09375 
Q 10.5 23.09375 10.5 21.09375 
Q 10.5 13.296875 14.75 8.390625 
Q 19 3.5 26.296875 3.5 
Q 29.796875 3.5 32.6875 4.890625 
Q 35.59375 6.296875 39 9.5 
L 39.40625 7.09375 
Q 32.40625 -1.59375 21.296875 -1.59375 
Q 14 -1.59375 9.09375 4.296875 
Q 4.203125 10.203125 4.203125 18.59375 
Q 4.203125 27.796875 9.640625 33.84375 
Q 15.09375 39.90625 23.5 39.90625 
Q 29.90625 39.90625 34.15625 35.84375 
Q 38.40625 31.796875 38.703125 25.09375 
z
M 11.296875 27.203125 
L 29.5 27.203125 
Q 32.203125 27.203125 32.203125 29.296875 
Q 32.203125 31.40625 30.203125 34.5 
Q 28.203125 37.59375 23.09375 37.59375 
Q 18.703125 37.59375 15.5 34.75 
Q 12.296875 31.90625 11.296875 27.203125 
z
" id="STKaiti-101"/>
      <path d="M 13.90625 33.703125 
Q 22.59375 39.90625 30.703125 39.90625 
Q 38.203125 39.90625 42.796875 34.546875 
Q 47.40625 29.203125 47.40625 20.203125 
Q 47.40625 11.09375 41.296875 4.75 
Q 35.203125 -1.59375 25.703125 -1.59375 
Q 20 -1.59375 13.90625 1.296875 
L 13.90625 -19.90625 
Q 13.90625 -21.203125 14.75 -21.953125 
Q 15.59375 -22.703125 18.09375 -23.09375 
L 24.09375 -24.09375 
L 24.09375 -25.703125 
Q 20.203125 -25.296875 12.59375 -25.296875 
Q 6.296875 -25.296875 1.203125 -25.703125 
L 1.203125 -24.09375 
L 5.40625 -23.296875 
Q 6.90625 -23 7.34375 -22.34375 
Q 7.796875 -21.703125 7.796875 -19.796875 
L 7.796875 30.296875 
Q 7.796875 33.90625 6.5 34.09375 
L 1.59375 34.90625 
L 1.90625 36.296875 
Q 6.90625 38.40625 8.953125 39.796875 
Q 11 41.203125 12.40625 43.5 
L 13.90625 43.5 
z
M 13.90625 30.703125 
L 13.90625 8.796875 
Q 13.90625 5.203125 17.203125 2.84375 
Q 20.5 0.5 25.703125 0.5 
Q 32.09375 0.5 36.296875 5.25 
Q 40.5 10 40.5 16.796875 
Q 40.5 25.5 36.796875 30.390625 
Q 33.09375 35.296875 26.90625 35.296875 
Q 20.796875 35.296875 13.90625 30.703125 
z
" id="STKaiti-112"/>
     </defs>
     <g transform="translate(315.11875 491.100625)scale(0.2 -0.2)">
      <use xlink:href="#STKaiti-83"/>
      <use x="47.899994" xlink:href="#STKaiti-116"/>
      <use x="77.099991" xlink:href="#STKaiti-101"/>
      <use x="118.799988" xlink:href="#STKaiti-112"/>
     </g>
    </g>
   </g>
   <g id="matplotlib.axis_2">
    <g id="ytick_1">
     <g id="line2d_5">
      <defs>
       <path d="M 0 0 
L -3.5 0 
" id="m6878c1df57" style="stroke:#000000;stroke-width:0.8;"/>
      </defs>
      <g>
       <use style="stroke:#000000;stroke-width:0.8;" x="81" xlink:href="#m6878c1df57" y="444.910662"/>
      </g>
     </g>
     <g id="text_6">
      <!-- 0.0 -->
      <defs>
       <path d="M 11 -1.59375 
Q 8.796875 -1.59375 7.296875 -0.09375 
Q 5.796875 1.40625 5.796875 3.59375 
Q 5.796875 5.796875 7.296875 7.296875 
Q 8.796875 8.796875 11 8.796875 
Q 13.203125 8.796875 14.703125 7.296875 
Q 16.203125 5.796875 16.203125 3.59375 
Q 16.203125 1.40625 14.703125 -0.09375 
Q 13.203125 -1.59375 11 -1.59375 
z
" id="STKaiti-46"/>
      </defs>
      <g transform="translate(50.85625 451.510662)scale(0.2 -0.2)">
       <use xlink:href="#STKaiti-48"/>
       <use x="46.899994" xlink:href="#STKaiti-46"/>
       <use x="68.799988" xlink:href="#STKaiti-48"/>
      </g>
     </g>
    </g>
    <g id="ytick_2">
     <g id="line2d_6">
      <g>
       <use style="stroke:#000000;stroke-width:0.8;" x="81" xlink:href="#m6878c1df57" y="378.455721"/>
      </g>
     </g>
     <g id="text_7">
      <!-- 0.1 -->
      <g transform="translate(50.85625 385.055721)scale(0.2 -0.2)">
       <use xlink:href="#STKaiti-48"/>
       <use x="46.899994" xlink:href="#STKaiti-46"/>
       <use x="68.799988" xlink:href="#STKaiti-49"/>
      </g>
     </g>
    </g>
    <g id="ytick_3">
     <g id="line2d_7">
      <g>
       <use style="stroke:#000000;stroke-width:0.8;" x="81" xlink:href="#m6878c1df57" y="312.000781"/>
      </g>
     </g>
     <g id="text_8">
      <!-- 0.2 -->
      <defs>
       <path d="M 42.59375 -0.296875 
Q 35.40625 0 22.203125 0 
Q 9.296875 0 2.203125 -0.296875 
Q 4.09375 3.59375 7 7.09375 
Q 9.90625 10.59375 16.296875 17 
Q 25.59375 26.296875 29.890625 32.84375 
Q 34.203125 39.40625 34.203125 46.09375 
Q 34.203125 51.59375 30.75 55 
Q 27.296875 58.40625 22.203125 58.40625 
Q 17.203125 58.40625 13.09375 54.953125 
Q 9 51.5 7.40625 45.203125 
L 5.09375 45.59375 
Q 6.703125 54.09375 11.796875 58.796875 
Q 16.90625 63.5 24.203125 63.5 
Q 31.5 63.5 36.59375 58.640625 
Q 41.703125 53.796875 41.703125 47 
Q 41.703125 40.203125 36.953125 34.25 
Q 32.203125 28.296875 22.59375 19.40625 
Q 17.5 14.703125 9.90625 5.296875 
L 33.40625 5.296875 
Q 37.203125 5.296875 38.75 6.640625 
Q 40.296875 8 42 12.5 
L 44.09375 12.5 
z
" id="STKaiti-50"/>
      </defs>
      <g transform="translate(50.85625 318.600781)scale(0.2 -0.2)">
       <use xlink:href="#STKaiti-48"/>
       <use x="46.899994" xlink:href="#STKaiti-46"/>
       <use x="68.799988" xlink:href="#STKaiti-50"/>
      </g>
     </g>
    </g>
    <g id="ytick_4">
     <g id="line2d_8">
      <g>
       <use style="stroke:#000000;stroke-width:0.8;" x="81" xlink:href="#m6878c1df57" y="245.54584"/>
      </g>
     </g>
     <g id="text_9">
      <!-- 0.3 -->
      <defs>
       <path d="M 9.40625 48.90625 
L 7.59375 49.90625 
Q 10.5 56.796875 14.59375 60.140625 
Q 18.703125 63.5 24.90625 63.5 
Q 30.5 63.5 34.296875 60.296875 
Q 38.09375 57.09375 38.09375 53.203125 
Q 38.09375 49.296875 35.4375 45.796875 
Q 32.796875 42.296875 27.203125 38.09375 
Q 34.5 38.59375 38.890625 33.796875 
Q 43.296875 29 43.296875 21.5 
Q 43.296875 11.796875 36.390625 5.09375 
Q 29.5 -1.59375 18.796875 -1.59375 
Q 11.90625 -1.59375 8.296875 0.046875 
Q 4.703125 1.703125 4.703125 3.90625 
Q 4.703125 4.90625 5.640625 5.75 
Q 6.59375 6.59375 7.703125 6.59375 
Q 9.40625 6.59375 11.59375 4.796875 
Q 17.203125 0.59375 21.09375 0.59375 
Q 27.203125 0.59375 31.84375 5.890625 
Q 36.5 11.203125 36.5 18.796875 
Q 36.5 25.203125 33.34375 29.34375 
Q 30.203125 33.5 25.40625 33.5 
Q 21.703125 33.5 17.796875 30.09375 
L 16.703125 32 
Q 18.703125 33.796875 21.09375 35.59375 
Q 32.09375 43.703125 32.09375 49.296875 
Q 32.09375 53.40625 29.34375 55.90625 
Q 26.59375 58.40625 22.5 58.40625 
Q 18.5 58.40625 14.953125 55.953125 
Q 11.40625 53.5 9.40625 48.90625 
z
" id="STKaiti-51"/>
      </defs>
      <g transform="translate(50.85625 252.14584)scale(0.2 -0.2)">
       <use xlink:href="#STKaiti-48"/>
       <use x="46.899994" xlink:href="#STKaiti-46"/>
       <use x="68.799988" xlink:href="#STKaiti-51"/>
      </g>
     </g>
    </g>
    <g id="ytick_5">
     <g id="line2d_9">
      <g>
       <use style="stroke:#000000;stroke-width:0.8;" x="81" xlink:href="#m6878c1df57" y="179.0909"/>
      </g>
     </g>
     <g id="text_10">
      <!-- 0.4 -->
      <defs>
       <path d="M 32.59375 63.5 
L 35 63.5 
L 35 22 
L 45.59375 22 
L 45.59375 17.40625 
L 35 17.40625 
L 35 -1.59375 
L 28.40625 -1.59375 
L 28.40625 17.40625 
L 2.796875 17.40625 
L 2.796875 20.703125 
L 14.703125 38.09375 
z
M 28.40625 22 
L 28.40625 52.703125 
Q 14.796875 33.796875 7.59375 22 
z
" id="STKaiti-52"/>
      </defs>
      <g transform="translate(50.85625 185.6909)scale(0.2 -0.2)">
       <use xlink:href="#STKaiti-48"/>
       <use x="46.899994" xlink:href="#STKaiti-46"/>
       <use x="68.799988" xlink:href="#STKaiti-52"/>
      </g>
     </g>
    </g>
    <g id="ytick_6">
     <g id="line2d_10">
      <g>
       <use style="stroke:#000000;stroke-width:0.8;" x="81" xlink:href="#m6878c1df57" y="112.635959"/>
      </g>
     </g>
     <g id="text_11">
      <!-- 0.5 -->
      <g transform="translate(50.85625 119.235959)scale(0.2 -0.2)">
       <use xlink:href="#STKaiti-48"/>
       <use x="46.899994" xlink:href="#STKaiti-46"/>
       <use x="68.799988" xlink:href="#STKaiti-53"/>
      </g>
     </g>
    </g>
    <g id="text_12">
     <!-- MSE -->
     <defs>
      <path d="M 82.5 -0.296875 
Q 72.90625 0 68.203125 0 
Q 62 0 53.90625 -0.296875 
L 53.90625 1.296875 
L 59.90625 2.5 
Q 62.203125 3 62.796875 4 
Q 63.40625 5 63.40625 7.90625 
L 63.40625 54.59375 
L 41 -0.796875 
L 14.40625 58.90625 
L 14.40625 7.296875 
Q 14.40625 2.59375 17.40625 2.296875 
L 26.59375 1.296875 
L 26.59375 -0.296875 
Q 20.59375 0 13.703125 0 
Q 8.59375 0 0.703125 -0.296875 
L 0.703125 1.296875 
L 6.203125 2.296875 
Q 10 3 10.75 3.953125 
Q 11.5 4.90625 11.5 7.296875 
L 11.5 60.09375 
L 2.40625 61.203125 
L 2.40625 62.796875 
Q 4.09375 62.5 12 62.5 
Q 18.703125 62.5 21.203125 62.796875 
L 43.40625 13.203125 
L 63.59375 62.796875 
Q 68.5 62.5 73.40625 62.5 
Q 78.203125 62.5 82.40625 62.796875 
L 82.40625 61.203125 
L 76.203125 59.90625 
Q 73.296875 59.296875 72.1875 58.09375 
Q 71.09375 56.90625 71.09375 54 
L 71.09375 8.59375 
Q 71.09375 5.5 71.640625 4.453125 
Q 72.203125 3.40625 74 3 
L 82.5 1.296875 
z
" id="STKaiti-77"/>
      <path d="M 63.296875 16.203125 
Q 61.09375 7 60.796875 -0.296875 
Q 48.40625 0 31.59375 0 
Q 14.796875 0 2.40625 -0.296875 
L 2.40625 1.40625 
L 9.59375 1.90625 
Q 11.296875 2 11.9375 2.59375 
Q 12.59375 3.203125 12.59375 5.40625 
L 12.59375 55.703125 
Q 12.59375 58.09375 12.046875 59.140625 
Q 11.5 60.203125 10.09375 60.296875 
L 2.796875 61 
L 2.796875 62.796875 
Q 10.90625 62.5 29.703125 62.5 
Q 48.703125 62.5 56.59375 62.796875 
Q 56.296875 59.703125 56.296875 55.40625 
Q 56.296875 52.09375 56.5 48.90625 
L 55.203125 48.90625 
Q 53 54.40625 51.796875 56.75 
Q 50.59375 59.09375 49.59375 59.796875 
Q 48.59375 60.5 46.90625 60.5 
L 23.703125 60.5 
Q 22 60.5 21.390625 59.546875 
Q 20.796875 58.59375 20.796875 56.296875 
L 20.796875 33.296875 
L 43.296875 33.296875 
Q 45 33.296875 45.796875 33.84375 
Q 46.59375 34.40625 47 36.296875 
L 48.296875 43.296875 
L 50.296875 43.296875 
Q 50 37.40625 50 31.296875 
Q 50 25.296875 50.296875 19.296875 
L 49.09375 19.296875 
L 46.90625 27.09375 
Q 46.203125 29.296875 44.890625 30.140625 
Q 43.59375 31 41 31 
L 20.796875 31 
L 20.796875 6.09375 
Q 20.796875 3.90625 21.59375 3.046875 
Q 22.40625 2.203125 25 2.203125 
L 47.203125 2.203125 
Q 50.203125 2.203125 52.25 3.140625 
Q 54.296875 4.09375 56.4375 7.09375 
Q 58.59375 10.09375 61.296875 16.203125 
z
" id="STKaiti-69"/>
     </defs>
     <g transform="translate(41.715625 274.199687)rotate(-90)scale(0.2 -0.2)">
      <use xlink:href="#STKaiti-77"/>
      <use x="83.299988" xlink:href="#STKaiti-83"/>
      <use x="131.199982" xlink:href="#STKaiti-69"/>
     </g>
    </g>
   </g>
   <g id="line2d_11">
    <path clip-path="url(#p9c919227e3)" d="M 103.827273 78.12 
L 105.778322 325.143483 
L 107.729371 362.486791 
L 109.68042 371.680677 
L 111.631469 368.361147 
L 113.582517 384.990616 
L 115.533566 383.851099 
L 117.484615 381.494513 
L 119.435664 387.39667 
L 121.386713 387.96987 
L 123.337762 392.272596 
L 125.288811 394.830486 
L 127.23986 396.592527 
L 129.190909 397.555318 
L 131.141958 397.028705 
L 133.093007 396.878716 
L 135.044056 394.230599 
L 136.995105 398.490357 
L 138.946154 398.545752 
L 140.897203 399.743684 
L 142.848252 396.598256 
L 144.799301 408.01593 
L 146.75035 404.68061 
L 148.701399 403.733601 
L 150.652448 412.685072 
L 152.603497 404.528435 
L 154.554545 403.851758 
L 156.505594 412.518147 
L 158.456643 409.715664 
L 160.407692 405.674386 
L 162.358741 408.853184 
L 164.30979 404.773384 
L 166.260839 411.682067 
L 168.211888 411.220979 
L 170.162937 409.67742 
L 172.113986 416.313335 
L 174.065035 413.441378 
L 176.016084 412.548972 
L 177.967133 411.427849 
L 179.918182 412.342466 
L 181.869231 410.097257 
L 183.82028 411.531865 
L 185.771329 416.408875 
L 187.722378 414.574446 
L 189.673427 407.833148 
L 191.624476 409.758114 
L 193.575524 409.488598 
L 195.526573 408.656353 
L 197.477622 419.186141 
L 199.428671 414.973677 
L 201.37972 415.852888 
L 203.330769 416.506214 
L 205.281818 413.00217 
L 207.232867 412.873852 
L 209.183916 412.264766 
L 211.134965 409.180367 
L 216.988112 419.735547 
L 218.939161 414.112732 
L 220.89021 414.247015 
L 222.841259 417.726135 
L 224.792308 411.183223 
L 226.743357 412.978027 
L 228.694406 416.036462 
L 230.645455 414.110669 
L 232.596503 417.751696 
L 234.547552 414.439043 
L 236.498601 413.666938 
L 238.44965 414.659917 
L 240.400699 422.798951 
L 242.351748 419.058559 
L 244.302797 415.988467 
L 246.253846 417.156807 
L 248.204895 418.785949 
L 250.155944 417.689429 
L 252.106993 417.621297 
L 254.058042 419.102351 
L 256.009091 418.574866 
L 257.96014 416.224568 
L 259.911189 414.813328 
L 261.862238 417.803994 
L 263.813287 424.986626 
L 265.764336 424.795853 
L 267.715385 417.791039 
L 269.666434 417.561268 
L 271.617483 419.071925 
L 273.568531 426.569207 
L 275.51958 415.597719 
L 277.470629 424.347201 
L 279.421678 416.934431 
L 281.372727 419.426647 
L 283.323776 421.202587 
L 285.274825 419.236434 
L 287.225874 420.261051 
L 289.176923 422.52061 
L 291.127972 420.656517 
L 293.079021 417.204317 
L 295.03007 419.454609 
L 296.981119 417.532558 
L 298.932168 417.775589 
L 300.883217 415.772036 
L 302.834266 419.8806 
L 304.785315 423.345532 
L 306.736364 418.603928 
L 308.687413 421.113342 
L 310.638462 418.573794 
L 312.58951 419.567058 
L 314.540559 422.206295 
L 316.491608 424.040967 
L 318.442657 420.322118 
L 320.393706 417.176954 
L 322.344755 421.366013 
L 326.246853 421.161758 
L 328.197902 422.176674 
L 330.148951 416.190551 
L 332.1 425.852916 
L 334.051049 424.097792 
L 336.002098 421.666836 
L 337.953147 422.811024 
L 339.904196 426.629969 
L 341.855245 424.671406 
L 343.806294 425.599462 
L 345.757343 420.737481 
L 347.708392 418.569704 
L 349.659441 421.065981 
L 351.61049 420.229165 
L 353.561538 428.219631 
L 355.512587 423.403658 
L 357.463636 423.930556 
L 359.414685 421.174582 
L 361.365734 424.257897 
L 363.316783 419.702928 
L 365.267832 420.551716 
L 367.218881 420.935663 
L 369.16993 423.214469 
L 371.120979 423.245559 
L 373.072028 423.882276 
L 375.023077 420.908102 
L 376.974126 420.754422 
L 378.925175 423.949323 
L 380.876224 418.337195 
L 382.827273 424.538314 
L 384.778322 420.445019 
L 386.729371 426.460612 
L 388.68042 424.541157 
L 390.631469 420.894194 
L 392.582517 425.642871 
L 394.533566 424.243283 
L 396.484615 420.576025 
L 398.435664 419.74824 
L 400.386713 429.14305 
L 402.337762 421.636717 
L 404.288811 424.955946 
L 406.23986 420.605225 
L 408.190909 424.166288 
L 410.141958 428.151692 
L 414.044056 428.156035 
L 415.995105 422.237045 
L 417.946154 418.774103 
L 419.897203 423.554939 
L 421.848252 417.847664 
L 423.799301 428.251438 
L 425.75035 423.634615 
L 427.701399 423.028504 
L 429.652448 427.54088 
L 431.603497 427.903256 
L 433.554545 420.50509 
L 435.505594 422.792071 
L 437.456643 423.815676 
L 439.407692 423.463895 
L 441.358741 420.484253 
L 443.30979 425.382524 
L 445.260839 428.091412 
L 447.211888 423.615275 
L 449.162937 425.438153 
L 451.113986 426.735026 
L 453.065035 420.921092 
L 455.016084 423.677166 
L 456.967133 423.405126 
L 458.918182 421.710259 
L 460.869231 420.824339 
L 462.82028 422.19666 
L 464.771329 422.620445 
L 466.722378 421.36209 
L 468.673427 425.445438 
L 470.624476 424.400995 
L 472.575524 423.196546 
L 474.526573 418.134383 
L 476.477622 425.985131 
L 478.428671 426.140727 
L 480.37972 425.960424 
L 482.330769 423.215663 
L 484.281818 427.483491 
L 486.232867 426.764624 
L 488.183916 428.42419 
L 490.134965 426.779332 
L 492.086014 426.971548 
L 494.037063 426.969132 
L 495.988112 425.558739 
L 497.939161 422.398415 
L 499.89021 428.522198 
L 501.841259 427.101355 
L 503.792308 426.240831 
L 505.743357 427.630794 
L 507.694406 423.481836 
L 509.645455 425.449537 
L 511.596503 423.473758 
L 513.547552 425.954159 
L 515.498601 430.92 
L 517.44965 421.13008 
L 519.400699 426.402883 
L 521.351748 426.177637 
L 523.302797 429.274738 
L 525.253846 425.384551 
L 527.204895 419.599058 
L 529.155944 427.922623 
L 531.106993 428.152765 
L 533.058042 424.59295 
L 535.009091 426.679366 
L 536.96014 429.99101 
L 538.911189 428.178575 
L 540.862238 428.409829 
L 542.813287 423.311559 
L 544.764336 427.653639 
L 546.715385 428.50681 
L 548.666434 424.96817 
L 550.617483 425.7336 
L 552.568531 427.485042 
L 554.51958 425.636042 
L 556.470629 425.764205 
L 558.421678 424.796346 
L 560.372727 428.522575 
L 560.372727 428.522575 
" style="fill:none;stroke:#1f77b4;stroke-linecap:square;stroke-width:1.5;"/>
   </g>
   <g id="patch_3">
    <path d="M 81 448.56 
L 81 60.48 
" style="fill:none;stroke:#000000;stroke-linecap:square;stroke-linejoin:miter;stroke-width:0.8;"/>
   </g>
   <g id="patch_4">
    <path d="M 583.2 448.56 
L 583.2 60.48 
" style="fill:none;stroke:#000000;stroke-linecap:square;stroke-linejoin:miter;stroke-width:0.8;"/>
   </g>
   <g id="patch_5">
    <path d="M 81 448.56 
L 583.2 448.56 
" style="fill:none;stroke:#000000;stroke-linecap:square;stroke-linejoin:miter;stroke-width:0.8;"/>
   </g>
   <g id="patch_6">
    <path d="M 81 60.48 
L 583.2 60.48 
" style="fill:none;stroke:#000000;stroke-linecap:square;stroke-linejoin:miter;stroke-width:0.8;"/>
   </g>
   <g id="legend_1">
    <g id="patch_7">
     <path d="M 469.8 105.620625 
L 569.2 105.620625 
Q 573.2 105.620625 573.2 101.620625 
L 573.2 74.48 
Q 573.2 70.48 569.2 70.48 
L 469.8 70.48 
Q 465.8 70.48 465.8 74.48 
L 465.8 101.620625 
Q 465.8 105.620625 469.8 105.620625 
z
" style="fill:#ffffff;opacity:0.8;stroke:#cccccc;stroke-linejoin:miter;"/>
    </g>
    <g id="line2d_12">
     <path d="M 473.8 85.48 
L 513.8 85.48 
" style="fill:none;stroke:#1f77b4;stroke-linecap:square;stroke-width:1.5;"/>
    </g>
    <g id="line2d_13"/>
    <g id="text_13">
     <!-- train -->
     <defs>
      <path d="M 2.09375 -0.40625 
L 2.09375 1.203125 
L 7.09375 2.09375 
Q 9.09375 2.59375 9.640625 3.59375 
Q 10.203125 4.59375 10.203125 7.203125 
L 10.203125 26.40625 
Q 10.203125 28.40625 9.34375 29.296875 
Q 8.5 30.203125 5.59375 30.796875 
L 2.90625 31.40625 
L 3.09375 32.90625 
Q 7 34.296875 9.59375 36.140625 
Q 12.203125 38 14.203125 42.203125 
L 16 42.203125 
Q 16.40625 36.796875 16.40625 29.59375 
Q 18.296875 33.203125 21.890625 36.546875 
Q 25.5 39.90625 28.296875 39.90625 
Q 30.5 39.90625 31.84375 38.5 
Q 33.203125 37.09375 33.203125 34.90625 
Q 33.203125 33.203125 32.09375 32.203125 
Q 31 31.203125 29.296875 31.203125 
Q 27.796875 31.203125 26.09375 31.90625 
Q 24.09375 32.796875 22.796875 32.796875 
Q 20.59375 32.796875 18.5 29.1875 
Q 16.40625 25.59375 16.40625 23.59375 
L 16.40625 7 
Q 16.40625 4.40625 17.25 3.546875 
Q 18.09375 2.703125 20.90625 2.296875 
L 28.59375 1.203125 
L 28.59375 -0.40625 
Q 23.203125 0 15.296875 0 
Q 7.796875 0 2.09375 -0.40625 
z
" id="STKaiti-114"/>
      <path d="M 39.90625 6.296875 
L 41.203125 5.59375 
Q 38.296875 -1.59375 33.203125 -1.59375 
Q 30.09375 -1.59375 28.34375 0.15625 
Q 26.59375 1.90625 26.59375 5.203125 
Q 21.09375 1 18.4375 -0.296875 
Q 15.796875 -1.59375 11.796875 -1.59375 
Q 5.296875 -1.59375 5.296875 3.703125 
Q 5.296875 8.40625 11.046875 13.703125 
Q 16.796875 19 26.796875 22.703125 
L 26.796875 29.5 
Q 26.796875 32.703125 25 34.75 
Q 23.203125 36.796875 20.203125 36.796875 
Q 16.703125 36.796875 14.203125 34.4375 
Q 11.703125 32.09375 11.203125 27.90625 
Q 11 26.203125 9.546875 25 
Q 8.09375 23.796875 6.5 23.796875 
Q 5.796875 23.796875 5.046875 24.140625 
Q 4.296875 24.5 4.296875 25.296875 
Q 4.296875 26.703125 6.890625 31 
Q 9.5 35.296875 13.390625 37.59375 
Q 17.296875 39.90625 21 39.90625 
Q 27.203125 39.90625 30 37.453125 
Q 32.796875 35 32.796875 29.59375 
L 32.796875 9.296875 
Q 32.796875 7 32.9375 5.75 
Q 33.09375 4.5 34 3.84375 
Q 34.90625 3.203125 35.796875 3.203125 
Q 38 3.203125 39.90625 6.296875 
z
M 26.796875 10.203125 
L 26.796875 20.5 
Q 20.40625 18 16.296875 13.890625 
Q 12.203125 9.796875 12.203125 6.40625 
Q 12.203125 4.5 13.453125 3.25 
Q 14.703125 2 16.59375 2 
Q 19.296875 2 23.046875 4.75 
Q 26.796875 7.5 26.796875 10.203125 
z
" id="STKaiti-97"/>
      <path d="M 11.203125 64 
Q 12.90625 64 14.296875 62.703125 
Q 15.703125 61.40625 15.703125 59.703125 
Q 15.703125 58.09375 14.25 56.84375 
Q 12.796875 55.59375 11 55.59375 
Q 9.296875 55.59375 8.09375 56.796875 
Q 6.90625 58 6.90625 59.703125 
Q 6.90625 61.40625 8.203125 62.703125 
Q 9.5 64 11.203125 64 
z
M 22.203125 -0.40625 
Q 19.09375 0 11.203125 0 
Q 3.296875 0 0.203125 -0.40625 
L 0.203125 1.203125 
L 5.796875 2.296875 
Q 8.90625 2.90625 8.90625 5.90625 
L 8.90625 29.40625 
Q 8.90625 31.796875 7.703125 32.890625 
Q 6.5 34 2.90625 34.796875 
L 2.90625 36.203125 
Q 10 38 13.296875 43.40625 
L 14.90625 43.40625 
L 14.90625 5.59375 
Q 14.90625 4.09375 15.34375 3.390625 
Q 15.796875 2.703125 17.09375 2.40625 
L 22.203125 1.203125 
z
" id="STKaiti-105"/>
      <path d="M 50 -0.296875 
Q 44.796875 0 39.59375 0 
Q 34.40625 0 29.203125 -0.296875 
L 29.203125 1.296875 
L 34.703125 2.09375 
Q 36.90625 2.40625 36.90625 6 
L 36.90625 25.703125 
Q 36.90625 30.09375 34.40625 32.6875 
Q 31.90625 35.296875 27.59375 35.296875 
Q 21.203125 35.296875 15.09375 29.203125 
L 15.09375 4.90625 
Q 15.09375 3.296875 17.5 2.703125 
L 23.40625 1.296875 
L 23.40625 -0.296875 
Q 19.703125 0 12.59375 0 
Q 5.5 0 1.796875 -0.296875 
L 1.796875 1.296875 
L 7.09375 2.296875 
Q 9.09375 2.59375 9.09375 5.296875 
L 9.09375 25.09375 
Q 9.09375 28.203125 7.84375 29.296875 
Q 6.59375 30.40625 3.40625 30.90625 
L 3.40625 32.703125 
Q 9.796875 34.203125 13.5 41.703125 
L 15.09375 41.703125 
L 15.09375 32.703125 
Q 18.90625 36 23.5 37.953125 
Q 28.09375 39.90625 31.59375 39.90625 
Q 43.09375 39.90625 43.09375 26.203125 
L 43.09375 6.296875 
Q 43.09375 4.40625 43.59375 3.40625 
Q 44.09375 2.40625 45.59375 2.09375 
L 50 1.296875 
z
" id="STKaiti-110"/>
     </defs>
     <g transform="translate(529.8 92.48)scale(0.2 -0.2)">
      <use xlink:href="#STKaiti-116"/>
      <use x="29.199997" xlink:href="#STKaiti-114"/>
      <use x="62.499985" xlink:href="#STKaiti-97"/>
      <use x="103.099976" xlink:href="#STKaiti-105"/>
      <use x="125.999969" xlink:href="#STKaiti-110"/>
     </g>
    </g>
   </g>
  </g>
 </g>
 <defs>
  <clipPath id="p9c919227e3">
   <rect height="388.08" width="502.2" x="81" y="60.48"/>
  </clipPath>
 </defs>
</svg>
