<?xml version="1.0" encoding="utf-8" standalone="no"?>
<!DOCTYPE svg PUBLIC "-//W3C//DTD SVG 1.1//EN"
  "http://www.w3.org/Graphics/SVG/1.1/DTD/svg11.dtd">
<!-- Created with matplotlib (https://matplotlib.org/) -->
<svg height="504pt" version="1.1" viewBox="0 0 648 504" width="648pt" xmlns="http://www.w3.org/2000/svg" xmlns:xlink="http://www.w3.org/1999/xlink">
 <defs>
  <style type="text/css">
*{stroke-linecap:butt;stroke-linejoin:round;}
  </style>
 </defs>
 <g id="figure_1">
  <g id="patch_1">
   <path d="M 0 504 
L 648 504 
L 648 0 
L 0 0 
z
" style="fill:#ffffff;"/>
  </g>
  <g id="axes_1">
   <g id="patch_2">
    <path d="M 81 448.56 
L 583.2 448.56 
L 583.2 60.48 
L 81 60.48 
z
" style="fill:#ffffff;"/>
   </g>
   <g id="matplotlib.axis_1">
    <g id="xtick_1">
     <g id="line2d_1">
      <defs>
       <path d="M 0 0 
L 0 3.5 
" id="m5407a47c69" style="stroke:#000000;stroke-width:0.8;"/>
      </defs>
      <g>
       <use style="stroke:#000000;stroke-width:0.8;" x="103.827273" xlink:href="#m5407a47c69" y="448.56"/>
      </g>
     </g>
     <g id="text_1">
      <!-- 0 -->
      <defs>
       <path d="M 23.703125 63.5 
Q 32 63.5 38.046875 54.140625 
Q 44.09375 44.796875 44.09375 30.90625 
Q 44.09375 17.09375 38.046875 7.75 
Q 32 -1.59375 23.703125 -1.59375 
Q 15.703125 -1.59375 9.5 7.65625 
Q 3.296875 16.90625 3.296875 30.90625 
Q 3.296875 44.796875 9.34375 54.140625 
Q 15.40625 63.5 23.703125 63.5 
z
M 23.703125 0.703125 
Q 31.09375 0.703125 33.9375 8.046875 
Q 36.796875 15.40625 36.796875 30.90625 
Q 36.796875 46.40625 33.9375 53.796875 
Q 31.09375 61.203125 23.703125 61.203125 
Q 16.296875 61.203125 13.4375 53.796875 
Q 10.59375 46.40625 10.59375 30.90625 
Q 10.59375 0.703125 23.703125 0.703125 
z
" id="STKaiti-48"/>
      </defs>
      <g transform="translate(99.136648 468.76)scale(0.2 -0.2)">
       <use xlink:href="#STKaiti-48"/>
      </g>
     </g>
    </g>
    <g id="xtick_2">
     <g id="line2d_2">
      <g>
       <use style="stroke:#000000;stroke-width:0.8;" x="202.22069" xlink:href="#m5407a47c69" y="448.56"/>
      </g>
     </g>
     <g id="text_2">
      <!-- 500 -->
      <defs>
       <path d="M 38 56.59375 
L 24 56.59375 
Q 16.203125 56.59375 15.40625 56.296875 
L 14.09375 38 
Q 18.5 40.09375 23.09375 40.09375 
Q 31.296875 40.09375 37 34.5 
Q 42.703125 28.90625 42.703125 19.90625 
Q 42.703125 9.90625 35.640625 4.15625 
Q 28.59375 -1.59375 19.59375 -1.59375 
Q 14.59375 -1.59375 10.390625 0.15625 
Q 6.203125 1.90625 6.203125 4 
Q 6.203125 5 7.09375 6.046875 
Q 8 7.09375 9.59375 7.09375 
Q 10.703125 7.09375 11.40625 6.59375 
Q 18.40625 1.296875 22.703125 1.296875 
Q 28.296875 1.296875 32.59375 6.140625 
Q 36.90625 11 36.90625 17.59375 
Q 36.90625 24.59375 32.546875 29.25 
Q 28.203125 33.90625 21.796875 33.90625 
Q 19 33.90625 16.546875 33 
Q 14.09375 32.09375 13 30.5 
L 11.296875 30.5 
L 13.203125 62.5 
L 24.09375 62.5 
Q 31.59375 62.5 34 62.703125 
Q 36.40625 62.90625 37.40625 64.203125 
L 38.90625 64.203125 
z
" id="STKaiti-53"/>
      </defs>
      <g transform="translate(188.148815 468.76)scale(0.2 -0.2)">
       <use xlink:href="#STKaiti-53"/>
       <use x="46.899994" xlink:href="#STKaiti-48"/>
       <use x="93.799988" xlink:href="#STKaiti-48"/>
      </g>
     </g>
    </g>
    <g id="xtick_3">
     <g id="line2d_3">
      <g>
       <use style="stroke:#000000;stroke-width:0.8;" x="300.614107" xlink:href="#m5407a47c69" y="448.56"/>
      </g>
     </g>
     <g id="text_3">
      <!-- 1000 -->
      <defs>
       <path d="M 35.5 -0.296875 
Q 30.296875 0 23.796875 0 
Q 17.296875 0 12.09375 -0.296875 
L 12.09375 1.296875 
L 17.296875 2.203125 
Q 20.796875 2.90625 20.796875 6.09375 
L 20.796875 55.5 
L 8.90625 47.796875 
L 7.5 49.703125 
Q 14.40625 54.203125 24.09375 63.5 
L 27.40625 63.5 
L 27.40625 6.09375 
Q 27.40625 2.703125 30.90625 2.09375 
L 35.5 1.296875 
z
" id="STKaiti-49"/>
      </defs>
      <g transform="translate(281.851607 468.76)scale(0.2 -0.2)">
       <use xlink:href="#STKaiti-49"/>
       <use x="46.899994" xlink:href="#STKaiti-48"/>
       <use x="93.799988" xlink:href="#STKaiti-48"/>
       <use x="140.699982" xlink:href="#STKaiti-48"/>
      </g>
     </g>
    </g>
    <g id="xtick_4">
     <g id="line2d_4">
      <g>
       <use style="stroke:#000000;stroke-width:0.8;" x="399.007524" xlink:href="#m5407a47c69" y="448.56"/>
      </g>
     </g>
     <g id="text_4">
      <!-- 1500 -->
      <g transform="translate(380.245024 468.76)scale(0.2 -0.2)">
       <use xlink:href="#STKaiti-49"/>
       <use x="46.899994" xlink:href="#STKaiti-53"/>
       <use x="93.799988" xlink:href="#STKaiti-48"/>
       <use x="140.699982" xlink:href="#STKaiti-48"/>
      </g>
     </g>
    </g>
    <g id="xtick_5">
     <g id="line2d_5">
      <g>
       <use style="stroke:#000000;stroke-width:0.8;" x="497.40094" xlink:href="#m5407a47c69" y="448.56"/>
      </g>
     </g>
     <g id="text_5">
      <!-- 2000 -->
      <defs>
       <path d="M 42.59375 -0.296875 
Q 35.40625 0 22.203125 0 
Q 9.296875 0 2.203125 -0.296875 
Q 4.09375 3.59375 7 7.09375 
Q 9.90625 10.59375 16.296875 17 
Q 25.59375 26.296875 29.890625 32.84375 
Q 34.203125 39.40625 34.203125 46.09375 
Q 34.203125 51.59375 30.75 55 
Q 27.296875 58.40625 22.203125 58.40625 
Q 17.203125 58.40625 13.09375 54.953125 
Q 9 51.5 7.40625 45.203125 
L 5.09375 45.59375 
Q 6.703125 54.09375 11.796875 58.796875 
Q 16.90625 63.5 24.203125 63.5 
Q 31.5 63.5 36.59375 58.640625 
Q 41.703125 53.796875 41.703125 47 
Q 41.703125 40.203125 36.953125 34.25 
Q 32.203125 28.296875 22.59375 19.40625 
Q 17.5 14.703125 9.90625 5.296875 
L 33.40625 5.296875 
Q 37.203125 5.296875 38.75 6.640625 
Q 40.296875 8 42 12.5 
L 44.09375 12.5 
z
" id="STKaiti-50"/>
      </defs>
      <g transform="translate(478.63844 468.76)scale(0.2 -0.2)">
       <use xlink:href="#STKaiti-50"/>
       <use x="46.899994" xlink:href="#STKaiti-48"/>
       <use x="93.799988" xlink:href="#STKaiti-48"/>
       <use x="140.699982" xlink:href="#STKaiti-48"/>
      </g>
     </g>
    </g>
    <g id="text_6">
     <!-- Step -->
     <defs>
      <path d="M 37.59375 47.703125 
Q 34.703125 60.796875 23.203125 60.796875 
Q 17.796875 60.796875 14.140625 57.6875 
Q 10.5 54.59375 10.5 50.40625 
Q 10.5 47.09375 13.453125 44.296875 
Q 16.40625 41.5 25.703125 36.703125 
Q 35.203125 31.796875 39.453125 28.09375 
Q 43.703125 24.40625 43.703125 17.09375 
Q 43.703125 8.703125 37.84375 3.546875 
Q 32 -1.59375 21.5 -1.59375 
Q 11.796875 -1.59375 3.796875 3.09375 
L 4.90625 18 
L 6.296875 18 
Q 7.203125 10.59375 12.296875 5.84375 
Q 17.40625 1.09375 23.59375 1.09375 
Q 29.5 1.09375 33.546875 4.59375 
Q 37.59375 8.09375 37.59375 13 
Q 37.59375 17.40625 34.34375 20.40625 
Q 31.09375 23.40625 23.59375 27.296875 
Q 13.203125 32.703125 9.09375 37.09375 
Q 5 41.5 5 47.203125 
Q 5 54.296875 10.5 58.890625 
Q 16 63.5 24.796875 63.5 
Q 33.59375 63.5 39.296875 59.09375 
L 38.90625 47.703125 
z
" id="STKaiti-83"/>
      <path d="M 15.296875 48.203125 
L 16.5 48.203125 
L 16.59375 37.5 
L 30.203125 37.796875 
L 30.203125 34.203125 
L 16.59375 33.796875 
L 16.59375 10 
Q 16.59375 5.5 17.84375 3.5 
Q 19.09375 1.5 21.90625 1.5 
Q 25.296875 1.5 30.09375 4.296875 
L 31 2.90625 
Q 28.90625 0.5 26.15625 -0.546875 
Q 23.40625 -1.59375 18.703125 -1.59375 
Q 13.5 -1.59375 11.890625 0.953125 
Q 10.296875 3.5 10.296875 11 
L 10.296875 33.59375 
L 4.90625 33.5 
Q 3.5 33.5 3.5 34.296875 
Q 3.5 35 4.796875 35.59375 
Q 9.09375 37.40625 11.046875 39.75 
Q 13 42.09375 15.296875 48.203125 
z
" id="STKaiti-116"/>
      <path d="M 38.703125 25.09375 
L 10.796875 25.09375 
Q 10.5 23.09375 10.5 21.09375 
Q 10.5 13.296875 14.75 8.390625 
Q 19 3.5 26.296875 3.5 
Q 29.796875 3.5 32.6875 4.890625 
Q 35.59375 6.296875 39 9.5 
L 39.40625 7.09375 
Q 32.40625 -1.59375 21.296875 -1.59375 
Q 14 -1.59375 9.09375 4.296875 
Q 4.203125 10.203125 4.203125 18.59375 
Q 4.203125 27.796875 9.640625 33.84375 
Q 15.09375 39.90625 23.5 39.90625 
Q 29.90625 39.90625 34.15625 35.84375 
Q 38.40625 31.796875 38.703125 25.09375 
z
M 11.296875 27.203125 
L 29.5 27.203125 
Q 32.203125 27.203125 32.203125 29.296875 
Q 32.203125 31.40625 30.203125 34.5 
Q 28.203125 37.59375 23.09375 37.59375 
Q 18.703125 37.59375 15.5 34.75 
Q 12.296875 31.90625 11.296875 27.203125 
z
" id="STKaiti-101"/>
      <path d="M 13.90625 33.703125 
Q 22.59375 39.90625 30.703125 39.90625 
Q 38.203125 39.90625 42.796875 34.546875 
Q 47.40625 29.203125 47.40625 20.203125 
Q 47.40625 11.09375 41.296875 4.75 
Q 35.203125 -1.59375 25.703125 -1.59375 
Q 20 -1.59375 13.90625 1.296875 
L 13.90625 -19.90625 
Q 13.90625 -21.203125 14.75 -21.953125 
Q 15.59375 -22.703125 18.09375 -23.09375 
L 24.09375 -24.09375 
L 24.09375 -25.703125 
Q 20.203125 -25.296875 12.59375 -25.296875 
Q 6.296875 -25.296875 1.203125 -25.703125 
L 1.203125 -24.09375 
L 5.40625 -23.296875 
Q 6.90625 -23 7.34375 -22.34375 
Q 7.796875 -21.703125 7.796875 -19.796875 
L 7.796875 30.296875 
Q 7.796875 33.90625 6.5 34.09375 
L 1.59375 34.90625 
L 1.90625 36.296875 
Q 6.90625 38.40625 8.953125 39.796875 
Q 11 41.203125 12.40625 43.5 
L 13.90625 43.5 
z
M 13.90625 30.703125 
L 13.90625 8.796875 
Q 13.90625 5.203125 17.203125 2.84375 
Q 20.5 0.5 25.703125 0.5 
Q 32.09375 0.5 36.296875 5.25 
Q 40.5 10 40.5 16.796875 
Q 40.5 25.5 36.796875 30.390625 
Q 33.09375 35.296875 26.90625 35.296875 
Q 20.796875 35.296875 13.90625 30.703125 
z
" id="STKaiti-112"/>
     </defs>
     <g transform="translate(315.11875 491.100625)scale(0.2 -0.2)">
      <use xlink:href="#STKaiti-83"/>
      <use x="47.899994" xlink:href="#STKaiti-116"/>
      <use x="77.099991" xlink:href="#STKaiti-101"/>
      <use x="118.799988" xlink:href="#STKaiti-112"/>
     </g>
    </g>
   </g>
   <g id="matplotlib.axis_2">
    <g id="ytick_1">
     <g id="line2d_6">
      <defs>
       <path d="M 0 0 
L -3.5 0 
" id="m9a8d788698" style="stroke:#000000;stroke-width:0.8;"/>
      </defs>
      <g>
       <use style="stroke:#000000;stroke-width:0.8;" x="81" xlink:href="#m9a8d788698" y="434.012603"/>
      </g>
     </g>
     <g id="text_7">
      <!-- 0.00 -->
      <defs>
       <path d="M 11 -1.59375 
Q 8.796875 -1.59375 7.296875 -0.09375 
Q 5.796875 1.40625 5.796875 3.59375 
Q 5.796875 5.796875 7.296875 7.296875 
Q 8.796875 8.796875 11 8.796875 
Q 13.203125 8.796875 14.703125 7.296875 
Q 16.203125 5.796875 16.203125 3.59375 
Q 16.203125 1.40625 14.703125 -0.09375 
Q 13.203125 -1.59375 11 -1.59375 
z
" id="STKaiti-46"/>
      </defs>
      <g transform="translate(41.475 440.612603)scale(0.2 -0.2)">
       <use xlink:href="#STKaiti-48"/>
       <use x="46.899994" xlink:href="#STKaiti-46"/>
       <use x="68.799988" xlink:href="#STKaiti-48"/>
       <use x="115.699982" xlink:href="#STKaiti-48"/>
      </g>
     </g>
    </g>
    <g id="ytick_2">
     <g id="line2d_7">
      <g>
       <use style="stroke:#000000;stroke-width:0.8;" x="81" xlink:href="#m9a8d788698" y="380.707691"/>
      </g>
     </g>
     <g id="text_8">
      <!-- 0.25 -->
      <g transform="translate(41.475 387.307691)scale(0.2 -0.2)">
       <use xlink:href="#STKaiti-48"/>
       <use x="46.899994" xlink:href="#STKaiti-46"/>
       <use x="68.799988" xlink:href="#STKaiti-50"/>
       <use x="115.699982" xlink:href="#STKaiti-53"/>
      </g>
     </g>
    </g>
    <g id="ytick_3">
     <g id="line2d_8">
      <g>
       <use style="stroke:#000000;stroke-width:0.8;" x="81" xlink:href="#m9a8d788698" y="327.402779"/>
      </g>
     </g>
     <g id="text_9">
      <!-- 0.50 -->
      <g transform="translate(41.475 334.002779)scale(0.2 -0.2)">
       <use xlink:href="#STKaiti-48"/>
       <use x="46.899994" xlink:href="#STKaiti-46"/>
       <use x="68.799988" xlink:href="#STKaiti-53"/>
       <use x="115.699982" xlink:href="#STKaiti-48"/>
      </g>
     </g>
    </g>
    <g id="ytick_4">
     <g id="line2d_9">
      <g>
       <use style="stroke:#000000;stroke-width:0.8;" x="81" xlink:href="#m9a8d788698" y="274.097866"/>
      </g>
     </g>
     <g id="text_10">
      <!-- 0.75 -->
      <defs>
       <path d="M 4.59375 62.5 
L 43.09375 62.5 
L 43.09375 60.796875 
Q 39.703125 54.796875 30.953125 30.140625 
Q 22.203125 5.5 21.296875 0 
L 18 0 
Q 22.796875 20.703125 37.296875 56.40625 
L 10.296875 56.40625 
Q 7.796875 56.40625 7.59375 55.09375 
L 6.796875 50.90625 
L 4.59375 50.90625 
z
" id="STKaiti-55"/>
      </defs>
      <g transform="translate(41.475 280.697866)scale(0.2 -0.2)">
       <use xlink:href="#STKaiti-48"/>
       <use x="46.899994" xlink:href="#STKaiti-46"/>
       <use x="68.799988" xlink:href="#STKaiti-55"/>
       <use x="115.699982" xlink:href="#STKaiti-53"/>
      </g>
     </g>
    </g>
    <g id="ytick_5">
     <g id="line2d_10">
      <g>
       <use style="stroke:#000000;stroke-width:0.8;" x="81" xlink:href="#m9a8d788698" y="220.792954"/>
      </g>
     </g>
     <g id="text_11">
      <!-- 1.00 -->
      <g transform="translate(41.475 227.392954)scale(0.2 -0.2)">
       <use xlink:href="#STKaiti-49"/>
       <use x="46.899994" xlink:href="#STKaiti-46"/>
       <use x="68.799988" xlink:href="#STKaiti-48"/>
       <use x="115.699982" xlink:href="#STKaiti-48"/>
      </g>
     </g>
    </g>
    <g id="ytick_6">
     <g id="line2d_11">
      <g>
       <use style="stroke:#000000;stroke-width:0.8;" x="81" xlink:href="#m9a8d788698" y="167.488041"/>
      </g>
     </g>
     <g id="text_12">
      <!-- 1.25 -->
      <g transform="translate(41.475 174.088041)scale(0.2 -0.2)">
       <use xlink:href="#STKaiti-49"/>
       <use x="46.899994" xlink:href="#STKaiti-46"/>
       <use x="68.799988" xlink:href="#STKaiti-50"/>
       <use x="115.699982" xlink:href="#STKaiti-53"/>
      </g>
     </g>
    </g>
    <g id="ytick_7">
     <g id="line2d_12">
      <g>
       <use style="stroke:#000000;stroke-width:0.8;" x="81" xlink:href="#m9a8d788698" y="114.183129"/>
      </g>
     </g>
     <g id="text_13">
      <!-- 1.50 -->
      <g transform="translate(41.475 120.783129)scale(0.2 -0.2)">
       <use xlink:href="#STKaiti-49"/>
       <use x="46.899994" xlink:href="#STKaiti-46"/>
       <use x="68.799988" xlink:href="#STKaiti-53"/>
       <use x="115.699982" xlink:href="#STKaiti-48"/>
      </g>
     </g>
    </g>
    <g id="ytick_8">
     <g id="line2d_13">
      <g>
       <use style="stroke:#000000;stroke-width:0.8;" x="81" xlink:href="#m9a8d788698" y="60.878216"/>
      </g>
     </g>
     <g id="text_14">
      <!-- 1.75 -->
      <g transform="translate(41.475 67.478216)scale(0.2 -0.2)">
       <use xlink:href="#STKaiti-49"/>
       <use x="46.899994" xlink:href="#STKaiti-46"/>
       <use x="68.799988" xlink:href="#STKaiti-55"/>
       <use x="115.699982" xlink:href="#STKaiti-53"/>
      </g>
     </g>
    </g>
    <g id="text_15">
     <!-- MSE -->
     <defs>
      <path d="M 82.5 -0.296875 
Q 72.90625 0 68.203125 0 
Q 62 0 53.90625 -0.296875 
L 53.90625 1.296875 
L 59.90625 2.5 
Q 62.203125 3 62.796875 4 
Q 63.40625 5 63.40625 7.90625 
L 63.40625 54.59375 
L 41 -0.796875 
L 14.40625 58.90625 
L 14.40625 7.296875 
Q 14.40625 2.59375 17.40625 2.296875 
L 26.59375 1.296875 
L 26.59375 -0.296875 
Q 20.59375 0 13.703125 0 
Q 8.59375 0 0.703125 -0.296875 
L 0.703125 1.296875 
L 6.203125 2.296875 
Q 10 3 10.75 3.953125 
Q 11.5 4.90625 11.5 7.296875 
L 11.5 60.09375 
L 2.40625 61.203125 
L 2.40625 62.796875 
Q 4.09375 62.5 12 62.5 
Q 18.703125 62.5 21.203125 62.796875 
L 43.40625 13.203125 
L 63.59375 62.796875 
Q 68.5 62.5 73.40625 62.5 
Q 78.203125 62.5 82.40625 62.796875 
L 82.40625 61.203125 
L 76.203125 59.90625 
Q 73.296875 59.296875 72.1875 58.09375 
Q 71.09375 56.90625 71.09375 54 
L 71.09375 8.59375 
Q 71.09375 5.5 71.640625 4.453125 
Q 72.203125 3.40625 74 3 
L 82.5 1.296875 
z
" id="STKaiti-77"/>
      <path d="M 63.296875 16.203125 
Q 61.09375 7 60.796875 -0.296875 
Q 48.40625 0 31.59375 0 
Q 14.796875 0 2.40625 -0.296875 
L 2.40625 1.40625 
L 9.59375 1.90625 
Q 11.296875 2 11.9375 2.59375 
Q 12.59375 3.203125 12.59375 5.40625 
L 12.59375 55.703125 
Q 12.59375 58.09375 12.046875 59.140625 
Q 11.5 60.203125 10.09375 60.296875 
L 2.796875 61 
L 2.796875 62.796875 
Q 10.90625 62.5 29.703125 62.5 
Q 48.703125 62.5 56.59375 62.796875 
Q 56.296875 59.703125 56.296875 55.40625 
Q 56.296875 52.09375 56.5 48.90625 
L 55.203125 48.90625 
Q 53 54.40625 51.796875 56.75 
Q 50.59375 59.09375 49.59375 59.796875 
Q 48.59375 60.5 46.90625 60.5 
L 23.703125 60.5 
Q 22 60.5 21.390625 59.546875 
Q 20.796875 58.59375 20.796875 56.296875 
L 20.796875 33.296875 
L 43.296875 33.296875 
Q 45 33.296875 45.796875 33.84375 
Q 46.59375 34.40625 47 36.296875 
L 48.296875 43.296875 
L 50.296875 43.296875 
Q 50 37.40625 50 31.296875 
Q 50 25.296875 50.296875 19.296875 
L 49.09375 19.296875 
L 46.90625 27.09375 
Q 46.203125 29.296875 44.890625 30.140625 
Q 43.59375 31 41 31 
L 20.796875 31 
L 20.796875 6.09375 
Q 20.796875 3.90625 21.59375 3.046875 
Q 22.40625 2.203125 25 2.203125 
L 47.203125 2.203125 
Q 50.203125 2.203125 52.25 3.140625 
Q 54.296875 4.09375 56.4375 7.09375 
Q 58.59375 10.09375 61.296875 16.203125 
z
" id="STKaiti-69"/>
     </defs>
     <g transform="translate(32.334375 274.199687)rotate(-90)scale(0.2 -0.2)">
      <use xlink:href="#STKaiti-77"/>
      <use x="83.299988" xlink:href="#STKaiti-83"/>
      <use x="131.199982" xlink:href="#STKaiti-69"/>
     </g>
    </g>
   </g>
   <g id="line2d_14">
    <path clip-path="url(#p6a1614002a)" d="M 103.827273 78.12 
L 119.570219 419.796722 
L 135.313166 422.879692 
L 151.056113 425.025537 
L 166.79906 425.792016 
L 182.542006 426.294328 
L 198.284953 427.875705 
L 214.0279 427.200753 
L 229.770846 428.031052 
L 245.513793 428.303367 
L 261.25674 429.07718 
L 276.999687 428.998348 
L 292.742633 429.017362 
L 308.48558 428.211726 
L 324.228527 429.007343 
L 339.971473 429.713457 
L 355.71442 429.539331 
L 371.457367 428.998563 
L 387.200313 429.389623 
L 402.94326 430.247799 
L 418.686207 430.09323 
L 434.429154 429.762322 
L 450.1721 430.331805 
L 465.915047 429.777416 
L 481.657994 429.289477 
L 497.40094 430.47842 
L 513.143887 430.088652 
L 528.886834 430.644162 
L 544.629781 430.92 
L 560.372727 430.335088 
" style="fill:none;stroke:#1f77b4;stroke-linecap:square;stroke-width:1.5;"/>
   </g>
   <g id="patch_3">
    <path d="M 81 448.56 
L 81 60.48 
" style="fill:none;stroke:#000000;stroke-linecap:square;stroke-linejoin:miter;stroke-width:0.8;"/>
   </g>
   <g id="patch_4">
    <path d="M 583.2 448.56 
L 583.2 60.48 
" style="fill:none;stroke:#000000;stroke-linecap:square;stroke-linejoin:miter;stroke-width:0.8;"/>
   </g>
   <g id="patch_5">
    <path d="M 81 448.56 
L 583.2 448.56 
" style="fill:none;stroke:#000000;stroke-linecap:square;stroke-linejoin:miter;stroke-width:0.8;"/>
   </g>
   <g id="patch_6">
    <path d="M 81 60.48 
L 583.2 60.48 
" style="fill:none;stroke:#000000;stroke-linecap:square;stroke-linejoin:miter;stroke-width:0.8;"/>
   </g>
   <g id="legend_1">
    <g id="patch_7">
     <path d="M 469.8 105.620625 
L 569.2 105.620625 
Q 573.2 105.620625 573.2 101.620625 
L 573.2 74.48 
Q 573.2 70.48 569.2 70.48 
L 469.8 70.48 
Q 465.8 70.48 465.8 74.48 
L 465.8 101.620625 
Q 465.8 105.620625 469.8 105.620625 
z
" style="fill:#ffffff;opacity:0.8;stroke:#cccccc;stroke-linejoin:miter;"/>
    </g>
    <g id="line2d_15">
     <path d="M 473.8 85.48 
L 513.8 85.48 
" style="fill:none;stroke:#1f77b4;stroke-linecap:square;stroke-width:1.5;"/>
    </g>
    <g id="line2d_16"/>
    <g id="text_16">
     <!-- train -->
     <defs>
      <path d="M 2.09375 -0.40625 
L 2.09375 1.203125 
L 7.09375 2.09375 
Q 9.09375 2.59375 9.640625 3.59375 
Q 10.203125 4.59375 10.203125 7.203125 
L 10.203125 26.40625 
Q 10.203125 28.40625 9.34375 29.296875 
Q 8.5 30.203125 5.59375 30.796875 
L 2.90625 31.40625 
L 3.09375 32.90625 
Q 7 34.296875 9.59375 36.140625 
Q 12.203125 38 14.203125 42.203125 
L 16 42.203125 
Q 16.40625 36.796875 16.40625 29.59375 
Q 18.296875 33.203125 21.890625 36.546875 
Q 25.5 39.90625 28.296875 39.90625 
Q 30.5 39.90625 31.84375 38.5 
Q 33.203125 37.09375 33.203125 34.90625 
Q 33.203125 33.203125 32.09375 32.203125 
Q 31 31.203125 29.296875 31.203125 
Q 27.796875 31.203125 26.09375 31.90625 
Q 24.09375 32.796875 22.796875 32.796875 
Q 20.59375 32.796875 18.5 29.1875 
Q 16.40625 25.59375 16.40625 23.59375 
L 16.40625 7 
Q 16.40625 4.40625 17.25 3.546875 
Q 18.09375 2.703125 20.90625 2.296875 
L 28.59375 1.203125 
L 28.59375 -0.40625 
Q 23.203125 0 15.296875 0 
Q 7.796875 0 2.09375 -0.40625 
z
" id="STKaiti-114"/>
      <path d="M 39.90625 6.296875 
L 41.203125 5.59375 
Q 38.296875 -1.59375 33.203125 -1.59375 
Q 30.09375 -1.59375 28.34375 0.15625 
Q 26.59375 1.90625 26.59375 5.203125 
Q 21.09375 1 18.4375 -0.296875 
Q 15.796875 -1.59375 11.796875 -1.59375 
Q 5.296875 -1.59375 5.296875 3.703125 
Q 5.296875 8.40625 11.046875 13.703125 
Q 16.796875 19 26.796875 22.703125 
L 26.796875 29.5 
Q 26.796875 32.703125 25 34.75 
Q 23.203125 36.796875 20.203125 36.796875 
Q 16.703125 36.796875 14.203125 34.4375 
Q 11.703125 32.09375 11.203125 27.90625 
Q 11 26.203125 9.546875 25 
Q 8.09375 23.796875 6.5 23.796875 
Q 5.796875 23.796875 5.046875 24.140625 
Q 4.296875 24.5 4.296875 25.296875 
Q 4.296875 26.703125 6.890625 31 
Q 9.5 35.296875 13.390625 37.59375 
Q 17.296875 39.90625 21 39.90625 
Q 27.203125 39.90625 30 37.453125 
Q 32.796875 35 32.796875 29.59375 
L 32.796875 9.296875 
Q 32.796875 7 32.9375 5.75 
Q 33.09375 4.5 34 3.84375 
Q 34.90625 3.203125 35.796875 3.203125 
Q 38 3.203125 39.90625 6.296875 
z
M 26.796875 10.203125 
L 26.796875 20.5 
Q 20.40625 18 16.296875 13.890625 
Q 12.203125 9.796875 12.203125 6.40625 
Q 12.203125 4.5 13.453125 3.25 
Q 14.703125 2 16.59375 2 
Q 19.296875 2 23.046875 4.75 
Q 26.796875 7.5 26.796875 10.203125 
z
" id="STKaiti-97"/>
      <path d="M 11.203125 64 
Q 12.90625 64 14.296875 62.703125 
Q 15.703125 61.40625 15.703125 59.703125 
Q 15.703125 58.09375 14.25 56.84375 
Q 12.796875 55.59375 11 55.59375 
Q 9.296875 55.59375 8.09375 56.796875 
Q 6.90625 58 6.90625 59.703125 
Q 6.90625 61.40625 8.203125 62.703125 
Q 9.5 64 11.203125 64 
z
M 22.203125 -0.40625 
Q 19.09375 0 11.203125 0 
Q 3.296875 0 0.203125 -0.40625 
L 0.203125 1.203125 
L 5.796875 2.296875 
Q 8.90625 2.90625 8.90625 5.90625 
L 8.90625 29.40625 
Q 8.90625 31.796875 7.703125 32.890625 
Q 6.5 34 2.90625 34.796875 
L 2.90625 36.203125 
Q 10 38 13.296875 43.40625 
L 14.90625 43.40625 
L 14.90625 5.59375 
Q 14.90625 4.09375 15.34375 3.390625 
Q 15.796875 2.703125 17.09375 2.40625 
L 22.203125 1.203125 
z
" id="STKaiti-105"/>
      <path d="M 50 -0.296875 
Q 44.796875 0 39.59375 0 
Q 34.40625 0 29.203125 -0.296875 
L 29.203125 1.296875 
L 34.703125 2.09375 
Q 36.90625 2.40625 36.90625 6 
L 36.90625 25.703125 
Q 36.90625 30.09375 34.40625 32.6875 
Q 31.90625 35.296875 27.59375 35.296875 
Q 21.203125 35.296875 15.09375 29.203125 
L 15.09375 4.90625 
Q 15.09375 3.296875 17.5 2.703125 
L 23.40625 1.296875 
L 23.40625 -0.296875 
Q 19.703125 0 12.59375 0 
Q 5.5 0 1.796875 -0.296875 
L 1.796875 1.296875 
L 7.09375 2.296875 
Q 9.09375 2.59375 9.09375 5.296875 
L 9.09375 25.09375 
Q 9.09375 28.203125 7.84375 29.296875 
Q 6.59375 30.40625 3.40625 30.90625 
L 3.40625 32.703125 
Q 9.796875 34.203125 13.5 41.703125 
L 15.09375 41.703125 
L 15.09375 32.703125 
Q 18.90625 36 23.5 37.953125 
Q 28.09375 39.90625 31.59375 39.90625 
Q 43.09375 39.90625 43.09375 26.203125 
L 43.09375 6.296875 
Q 43.09375 4.40625 43.59375 3.40625 
Q 44.09375 2.40625 45.59375 2.09375 
L 50 1.296875 
z
" id="STKaiti-110"/>
     </defs>
     <g transform="translate(529.8 92.48)scale(0.2 -0.2)">
      <use xlink:href="#STKaiti-116"/>
      <use x="29.199997" xlink:href="#STKaiti-114"/>
      <use x="62.499985" xlink:href="#STKaiti-97"/>
      <use x="103.099976" xlink:href="#STKaiti-105"/>
      <use x="125.999969" xlink:href="#STKaiti-110"/>
     </g>
    </g>
   </g>
  </g>
 </g>
 <defs>
  <clipPath id="p6a1614002a">
   <rect height="388.08" width="502.2" x="81" y="60.48"/>
  </clipPath>
 </defs>
</svg>
